<?xml version="1.0" standalone="no"?>
<!DOCTYPE svg PUBLIC "-//W3C//DTD SVG 20010904//EN"
 "http://www.w3.org/TR/2001/REC-SVG-20010904/DTD/svg10.dtd">
<svg version="1.0" xmlns="http://www.w3.org/2000/svg"
 width="1024.000000pt" height="1024.000000pt" viewBox="0 0 1024.000000 1024.000000"
 preserveAspectRatio="xMidYMid meet">

<g transform="translate(0.000000,1024.000000) scale(0.100000,-0.100000)"
fill="#2A9D8F" stroke="none">
<path d="M3910 8525 c-279 -38 -555 -135 -750 -262 -167 -109 -207 -172 -165
-253 16 -31 54 -54 147 -91 29 -11 109 -49 178 -83 461 -231 923 -634 1515
-1321 190 -222 351 -420 685 -845 442 -563 457 -579 567 -637 119 -62 239 -68
352 -18 78 35 152 113 178 187 34 100 16 328 -54 663 -179 859 -597 1665
-1129 2175 -105 100 -247 212 -351 273 -178 107 -427 187 -673 217 -114 14
-383 11 -500 -5z m1045 -452 c305 -245 540 -500 735 -800 80 -121 180 -312
180 -340 0 -10 -9 -37 -19 -60 -22 -47 -62 -73 -115 -73 -61 0 -84 19 -138
109 -221 376 -437 629 -807 945 -112 97 -137 135 -126 193 13 70 94 128 162
115 12 -2 70 -42 128 -89z"/>
<path d="M5843 8255 c-36 -15 -49 -45 -33 -76 7 -12 43 -54 80 -95 175 -188
391 -491 506 -709 199 -374 374 -835 469 -1230 96 -402 138 -710 154 -1135 10
-250 21 -304 86 -406 73 -113 189 -191 323 -216 180 -33 395 75 471 237 46 98
54 157 48 345 -15 435 -150 925 -360 1295 -58 103 -189 303 -253 386 -23 31
-87 105 -142 165 -54 60 -104 119 -110 131 -18 32 -14 71 9 113 26 46 66 70
118 70 34 0 50 -8 113 -60 236 -195 546 -603 685 -900 170 -362 256 -699 278
-1085 8 -144 17 -173 66 -229 60 -68 108 -90 194 -90 119 0 224 67 278 177 37
75 46 126 47 241 1 380 -201 961 -489 1411 -315 492 -764 935 -1238 1223 -112
68 -418 219 -549 270 -189 75 -410 137 -569 160 -134 20 -150 21 -182 7z"/>
<path d="M2515 7624 c-154 -38 -321 -148 -480 -316 -256 -269 -408 -581 -470
-963 -19 -114 -15 -158 16 -191 39 -41 92 -25 135 40 87 131 115 170 183 256
300 380 698 655 1173 810 112 37 159 57 176 76 54 61 10 119 -151 198 -156 77
-233 97 -392 102 -94 3 -147 -1 -190 -12z"/>
<path d="M3597 6985 c-132 -27 -267 -66 -384 -109 -900 -333 -1493 -1079
-1582 -1990 -52 -528 104 -1091 379 -1366 123 -123 249 -131 314 -20 18 31 19
40 8 140 -41 365 33 724 232 1125 122 246 238 413 449 646 295 326 723 609
1181 779 158 59 178 70 194 106 19 40 14 78 -15 122 -95 139 -458 503 -545
546 -68 33 -141 40 -231 21z m-110 -475 c41 -25 64 -59 70 -107 8 -65 -23 -98
-172 -176 -480 -253 -840 -604 -1084 -1057 -56 -102 -78 -126 -128 -136 -108
-21 -181 86 -134 195 63 147 244 414 408 601 249 285 576 535 873 666 86 39
122 42 167 14z"/>
<path d="M4540 5845 c-534 -157 -1037 -531 -1403 -1043 -132 -184 -262 -442
-328 -647 -82 -254 -103 -388 -103 -655 0 -192 3 -228 26 -335 75 -354 281
-698 494 -827 112 -69 194 -74 259 -17 39 35 59 87 51 132 -3 18 -10 84 -15
147 -34 420 145 966 463 1414 306 429 734 767 1242 980 113 48 145 70 163 117
20 55 -9 103 -235 384 -328 409 -357 426 -614 350z m50 -495 c81 -63 75 -159
-13 -215 -271 -170 -403 -270 -562 -430 -275 -274 -466 -569 -615 -948 -75
-189 -96 -217 -171 -217 -42 0 -55 5 -85 33 -58 53 -56 84 11 267 146 396 348
717 643 1021 161 166 283 271 442 378 242 163 272 172 350 111z"/>
<path d="M5728 4671 c-299 -65 -656 -242 -915 -452 -261 -212 -519 -526 -661
-802 -104 -201 -174 -402 -208 -597 -26 -149 -24 -382 4 -512 45 -215 161
-404 304 -497 108 -70 205 -76 277 -15 51 43 57 80 30 202 -30 135 -32 353 -5
507 41 228 167 534 312 752 180 272 437 523 719 705 208 134 348 200 644 302
225 78 245 92 245 163 0 70 -128 161 -315 224 -82 28 -110 32 -219 35 -96 3
-145 -1 -212 -15z"/>
<path d="M6685 3969 c-225 -33 -552 -160 -779 -304 -278 -176 -521 -413 -696
-680 -68 -104 -161 -297 -195 -405 -57 -182 -70 -425 -30 -575 60 -229 234
-399 423 -413 134 -9 230 36 252 119 10 36 7 52 -32 162 l-43 122 1 170 c1
186 10 239 74 403 60 156 166 208 251 123 43 -43 44 -69 14 -207 -24 -110 -27
-139 -23 -252 6 -157 28 -231 100 -338 90 -135 234 -214 367 -201 98 8 182 67
202 141 10 37 7 45 -60 180 -41 81 -80 175 -92 221 -30 118 -36 278 -14 405
72 432 288 787 651 1073 90 70 106 120 58 177 -15 17 -43 39 -63 50 -74 37
-224 49 -366 29z"/>
<path d="M7559 3580 c-146 -23 -279 -98 -420 -240 -158 -159 -298 -391 -339
-564 -24 -99 -26 -245 -4 -336 32 -136 126 -255 249 -316 230 -112 528 -25
799 236 164 156 272 331 317 509 28 110 23 273 -10 366 -40 110 -131 224 -224
278 -98 58 -248 85 -368 67z m89 -374 c87 -46 126 -148 85 -223 -10 -18 -70
-92 -133 -164 -148 -170 -197 -195 -297 -149 -63 28 -105 110 -89 174 10 40
240 312 299 354 36 26 94 29 135 8z"/>
</g>
</svg>
